<?xml version="1.0" encoding="iso-8859-1"?>
<!-- Generator: Adobe Illustrator 19.0.0, SVG Export Plug-In . SVG Version: 6.00 Build 0)  -->
<svg version="1.1" id="Capa_1" xmlns="http://www.w3.org/2000/svg" xmlns:xlink="http://www.w3.org/1999/xlink" x="0px" y="0px"
	 viewBox="0 0 512 512" style="enable-background:new 0 0 512 512;" xml:space="preserve">
<circle style="fill:#FEDB41;" cx="256" cy="256" r="256"/>
<path style="fill:#FCBF29;" d="M253.841,275.757L82.792,338.516l174.573,173.467c120.884-0.633,221.945-85.036,248.07-198.129
	l-69.045-69.045l-1.883,5.359L299.88,115.541l-88.347,95.546l142.536,142.536l-11.181,11.181L253.841,275.757z"/>
<path style="fill:#764C24;" d="M293.651,241.744L293.651,241.744c-69.205,0-125.307-56.102-125.307-125.307l0,0
	c0-22.262,18.047-40.308,40.308-40.308l0,0c69.205,0,125.307,56.102,125.307,125.307l0,0
	C333.96,223.697,315.913,241.744,293.651,241.744z"/>
<g>
	<path style="fill:#603C1B;" d="M180.198,87.888c-7.322,7.298-11.854,17.393-11.854,28.548l0,0
		c0,69.205,56.102,125.307,125.307,125.307l0,0c11.155,0,21.25-4.532,28.548-11.854L180.198,87.888z"/>
	
		<rect x="174.591" y="145.94" transform="matrix(-0.7071 -0.7071 0.7071 -0.7071 316.6322 447.5688)" style="fill:#603C1B;" width="152.839" height="24.535"/>
</g>
<rect x="240.589" y="86.249" transform="matrix(-0.7071 0.7071 -0.7071 -0.7071 535.9105 103.3548)" style="fill:#492911;" width="11.921" height="152.839"/>
<path style="fill:#764C24;" d="M283.37,359.063L283.37,359.063c0-69.205,56.102-125.307,125.307-125.307l0,0
	c22.262,0,40.308,18.047,40.308,40.308l0,0c0,69.205-56.102,125.307-125.307,125.307l0,0
	C301.416,399.371,283.37,381.325,283.37,359.063z"/>
<g>
	<path style="fill:#603C1B;" d="M437.445,245.84l-141.99,141.991c7.272,7.135,17.231,11.54,28.224,11.54l0,0
		c69.205,0,125.307-56.102,125.307-125.307l0,0C448.986,263.072,444.58,253.112,437.445,245.84z"/>
	
		<rect x="290.49" y="304.156" transform="matrix(0.7071 -0.7071 0.7071 0.7071 -116.2798 352.1222)" style="fill:#603C1B;" width="152.839" height="24.535"/>
</g>
<rect x="365.064" y="244.333" transform="matrix(0.7071 0.7071 -0.7071 0.7071 335.5316 -168.5408)" style="fill:#492911;" width="12.297" height="152.839"/>
<path style="fill:#764C24;" d="M82.792,281.511L82.792,281.511c48.936-48.936,128.276-48.935,177.211,0l0,0
	c15.741,15.741,15.741,41.263,0,57.005l0,0c-48.935,48.935-128.276,48.935-177.211,0l0,0
	C67.05,322.774,67.05,297.252,82.792,281.511z"/>
<g>
	<path style="fill:#603C1B;" d="M71.03,311.857c0.441,9.693,4.36,19.257,11.762,26.659l0,0c48.935,48.936,128.276,48.936,177.211,0
		l0,0c7.402-7.402,11.321-16.966,11.762-26.659H71.03z"/>
	<rect x="95.6" y="298.16" style="fill:#603C1B;" width="152.84" height="24.535"/>
</g>
<rect x="95.6" y="311.86" style="fill:#492911;" width="152.84" height="10.838"/>
<g>
</g>
<g>
</g>
<g>
</g>
<g>
</g>
<g>
</g>
<g>
</g>
<g>
</g>
<g>
</g>
<g>
</g>
<g>
</g>
<g>
</g>
<g>
</g>
<g>
</g>
<g>
</g>
<g>
</g>
</svg>
