<?xml version="1.0" encoding="iso-8859-1"?>
<!-- Generator: Adobe Illustrator 19.0.0, SVG Export Plug-In . SVG Version: 6.00 Build 0)  -->
<svg version="1.1" id="Capa_1" xmlns="http://www.w3.org/2000/svg" xmlns:xlink="http://www.w3.org/1999/xlink" x="0px" y="0px"
	 viewBox="0 0 511.998 511.998" style="enable-background:new 0 0 511.998 511.998;" xml:space="preserve">
<path style="fill:#51D09A;" d="M455.322,488.661c22.511-40.762,9.085-107.801-36.289-163.652c-1.62-1.995-3.263-3.952-4.926-5.872
	c-62.908-72.617-174.466,18.013-116.274,94.461c1.539,2.021,3.118,4.03,4.739,6.025
	C347.946,475.473,410.814,502.345,455.322,488.661z"/>
<path style="fill:#42AA7E;" d="M312.572,409.621c-1.62-1.994-3.2-4.003-4.739-6.025c-24.94-32.762-18.699-68.13,1.527-92.136
	c-27.65,23.325-40.213,64.453-11.528,102.137c1.539,2.021,3.118,4.03,4.739,6.025c45.374,55.851,108.241,82.724,152.75,69.039
	c1.488-2.695,2.808-5.511,3.984-8.425C415.281,489.905,355.938,463,312.572,409.621z"/>
<path style="fill:#51D09A;" d="M11.002,448.434c40.762,22.511,107.801,9.085,163.652-36.289c1.995-1.62,3.952-3.263,5.872-4.926
	c72.617-62.908-18.013-174.466-94.461-116.274c-2.021,1.539-4.03,3.118-6.025,4.739C24.19,341.057-2.682,403.925,11.002,448.434z"/>
<path style="fill:#42AA7E;" d="M178.203,292.472c23.993,28.442,29.145,72.847-7.677,104.746c-1.92,1.663-3.878,3.306-5.872,4.926
	c-52.159,42.374-114.068,56.874-155.228,40.273c0.448,2.039,0.97,4.046,1.576,6.017c40.762,22.511,107.801,9.085,163.652-36.29
	c1.995-1.62,3.952-3.263,5.872-4.926C222.023,371.27,210.212,319.439,178.203,292.472z"/>
<path style="fill:#51D09A;" d="M28.934,27.333c-17.053,43.33,4.924,108.071,57.137,157.589c1.865,1.768,3.747,3.497,5.644,5.186
	c71.765,63.877,170.675-40.413,103.089-108.697c-1.787-1.806-3.613-3.593-5.478-5.362C137.114,26.531,71.3,8.01,28.934,27.333z"/>
<path style="fill:#42AA7E;" d="M101.717,180.108c-1.898-1.689-3.779-3.418-5.644-5.186C46.61,128.011,24.288,67.443,36.57,24.355
	c-2.617,0.87-5.17,1.853-7.637,2.978c-17.052,43.33,4.925,108.071,57.138,157.59c1.865,1.768,3.747,3.497,5.644,5.186
	c37.47,33.35,82.337,20.858,107.045-8.417C173.108,203.346,134.569,209.349,101.717,180.108z"/>
<path style="fill:#51D09A;" d="M500.998,67.93c-40.762-22.511-107.801-9.085-163.652,36.289c-1.995,1.62-3.952,3.263-5.872,4.926
	c-72.617,62.908,18.013,174.466,94.461,116.274c2.021-1.539,4.03-3.118,6.025-4.739C487.81,175.306,514.682,112.438,500.998,67.93z"
	/>
<path style="fill:#42AA7E;" d="M500.998,67.93c-2.695-1.488-5.511-2.809-8.425-3.983c9.669,44.024-17.235,103.368-70.615,146.733
	c-1.995,1.62-4.003,3.2-6.025,4.739c-32.762,24.94-68.13,18.699-92.136-1.527c23.324,27.65,64.453,40.213,102.137,11.528
	c2.021-1.539,4.03-3.118,6.025-4.739C487.81,175.306,514.682,112.438,500.998,67.93z"/>
<circle style="fill:#EC8094;" cx="264.5" cy="137.129" r="87.196"/>
<g>
	<path style="fill:#E7627B;" d="M274.402,203.737c-47.832-5.575-82.087-48.871-76.513-96.702
		c1.776-15.236,7.384-29.09,15.741-40.723c-19.222,13.814-32.786,35.36-35.743,60.725c-5.575,47.832,28.68,91.127,76.513,96.702
		c32.596,3.799,63.081-10.903,80.961-35.79C318.335,200.185,296.869,206.355,274.402,203.737z"/>
	<circle style="fill:#E7627B;" cx="311.863" cy="260.288" r="84.316"/>
</g>
<circle style="fill:#42AA7E;" cx="172.073" cy="248.827" r="76.606"/>
<path style="fill:#3B9870;" d="M214.83,311.974c-40.4,12.568-83.339-9.995-95.907-50.395c-10.147-32.618,2.615-66.883,29.169-85.49
	c-39.623,13.052-61.61,55.505-49.171,95.491c12.568,40.4,55.507,62.963,95.907,50.395c7.782-2.42,14.892-5.977,21.227-10.416
	C215.644,311.694,215.244,311.845,214.83,311.974z"/>
<circle style="fill:#EC8094;" cx="243.438" cy="362.796" r="80.866"/>
<path style="fill:#E7627B;" d="M225.823,414.384c-39.535-20.774-54.743-69.663-33.97-109.198c1.604-3.052,3.393-5.94,5.315-8.698
	c-10.294,7.169-19.078,16.827-25.317,28.699c-20.774,39.535-5.565,88.425,33.97,109.198c36.483,19.169,80.913,7.681,103.883-25.272
	C285.717,425.819,253.486,428.919,225.823,414.384z"/>
<path d="M138.555,240.978c-1.23-3.955-5.432-6.163-9.391-4.934c-3.955,1.23-6.164,5.434-4.934,9.39c0,0,1.997,6.419,1.999,6.424
	c1.21,3.889,5.506,6.142,9.391,4.934c3.955-1.23,6.164-5.434,4.934-9.39L138.555,240.978z"/>
<path d="M197.228,229.771c1.211,3.894,5.506,6.141,9.39,4.934c3.955-1.23,6.164-5.434,4.934-9.39l-1.998-6.424
	c-1.23-3.955-5.434-6.163-9.39-4.934c-3.955,1.23-6.164,5.434-4.934,9.39C195.23,223.346,197.226,229.763,197.228,229.771z"/>
<path d="M186.51,238.26c1.677-3.788-0.034-8.218-3.822-9.895c-3.787-1.676-8.218,0.034-9.895,3.822
	c-0.828,1.871-2.524,3.324-4.653,3.986c-2.128,0.662-4.349,0.428-6.092-0.643c-3.53-2.168-8.149-1.064-10.317,2.465
	c-2.168,3.529-1.064,8.149,2.465,10.317c3.478,2.136,7.479,3.231,11.551,3.231c2.288,0,4.598-0.346,6.851-1.046
	C178.857,248.549,183.93,244.089,186.51,238.26z"/>
<path d="M223.008,127.563c0.295,0.034,0.588,0.051,0.878,0.051c3.754,0,6.996-2.813,7.441-6.632l0.887-7.607
	c0.479-4.114-2.467-7.839-6.581-8.319c-4.115-0.478-7.84,2.467-8.319,6.581l-0.887,7.607
	C215.946,123.359,218.893,127.084,223.008,127.563z"/>
<path d="M307.068,137.361c0.295,0.034,0.588,0.051,0.878,0.051c3.754,0,6.996-2.813,7.441-6.633l0.887-7.607
	c0.479-4.114-2.467-7.839-6.581-8.319c-4.117-0.479-7.839,2.467-8.319,6.581l-0.887,7.607
	C300.006,133.158,302.953,136.882,307.068,137.361z"/>
<path d="M264.383,138.084c0.986,0.115,1.97,0.171,2.948,0.171c6.082,0,11.921-2.193,16.361-6.218
	c3.068-2.782,3.301-7.526,0.519-10.595c-2.782-3.068-7.525-3.302-10.595-0.519c-1.946,1.765-4.684,2.587-7.497,2.26
	c-2.818-0.329-5.287-1.759-6.776-3.924c-2.346-3.413-7.017-4.278-10.43-1.931c-3.413,2.347-4.278,7.017-1.931,10.43
	C250.923,133.491,257.265,137.254,264.383,138.084z"/>
<path d="M220.748,321.603c-3.668-1.927-8.203-0.516-10.129,3.151l-3.303,6.286c-1.927,3.667-0.516,8.202,3.151,10.129
	c1.113,0.585,2.306,0.862,3.482,0.862c2.697,0,5.304-1.459,6.646-4.013l3.303-6.287
	C225.825,328.064,224.414,323.529,220.748,321.603z"/>
<path d="M290.225,358.109c-3.667-1.925-8.203-0.516-10.128,3.151l-3.303,6.287c-1.927,3.667-0.516,8.202,3.151,10.129
	c1.113,0.584,2.306,0.862,3.482,0.862c2.697,0,5.304-1.459,6.646-4.013l3.303-6.287
	C295.303,364.571,293.892,360.037,290.225,358.109z"/>
<path d="M256.533,351.308c-2.127,0.821-4.602,0.632-6.792-0.519c-2.189-1.15-3.749-3.081-4.278-5.298
	c-0.963-4.029-5.014-6.513-9.039-5.552c-4.029,0.963-6.515,5.009-5.552,9.039c1.536,6.428,5.87,11.93,11.892,15.093
	c3.466,1.821,7.254,2.743,11.02,2.743c2.775,0,5.54-0.501,8.156-1.511c3.864-1.492,5.787-5.834,4.294-9.699
	C264.74,351.737,260.395,349.815,256.533,351.308z"/>
<path d="M288.059,217.612c-3.667-1.927-8.202-0.517-10.129,3.15l-3.445,6.555c-1.927,3.667-0.517,8.202,3.15,10.129
	c3.554,1.868,8.211,0.5,10.129-3.15l3.445-6.555C293.136,224.075,291.726,219.539,288.059,217.612z"/>
<path d="M360.504,255.679c-3.667-1.927-8.202-0.516-10.129,3.151l-3.444,6.555c-1.927,3.667-0.516,8.202,3.15,10.129
	c3.62,1.901,8.226,0.47,10.129-3.151l3.444-6.555C365.581,262.14,364.17,257.606,360.504,255.679z"/>
<path d="M325.636,248.601c-2.304,0.889-4.981,0.687-7.347-0.555s-4.05-3.333-4.624-5.734c-0.963-4.029-5.013-6.515-9.039-5.552
	c-4.029,0.962-6.516,5.009-5.552,9.038c1.58,6.612,6.04,12.273,12.237,15.529c6.05,3.179,13.331,3.74,19.729,1.269
	c3.864-1.493,5.786-5.835,4.293-9.7C333.843,249.03,329.5,247.108,325.636,248.601z"/>
<path d="M345.742,88.458c-2.095-3.482-4.422-6.855-6.986-10.095c-15.694-19.835-38.174-32.372-63.298-35.301
	c-25.12-2.929-49.884,4.102-69.719,19.796c-3.541,2.801-6.839,5.828-9.901,9.039c-0.45-0.434-0.898-0.872-1.35-1.301
	C141.238,20.094,71.881-0.508,25.821,20.498c-1.769,0.806-3.155,2.268-3.867,4.077C3.415,71.68,27.659,139.85,80.91,190.354
	c5.931,5.625,12.088,10.941,19.061,15.248c-11.874,19.834-15.603,44.436-8.213,68.195c0.383,1.231,0.798,2.445,1.232,3.647
	c-3.914,2.18-7.753,4.693-11.468,7.522c-2.083,1.585-4.172,3.229-6.211,4.886C18.35,336.128-11.044,402.242,3.832,450.627
	c0.571,1.858,1.842,3.421,3.543,4.361c14.15,7.815,30.992,11.581,49.223,11.581c37.855,0,81.683-16.249,119.766-46.208
	c7.176,8.356,15.924,15.375,25.967,20.653c20.666,10.859,45.067,13.085,67.351,6.153c11.799-3.67,22.464-9.65,31.539-17.495
	c37.74,43.856,87.241,69.982,129.68,69.981c9.278,0,18.219-1.248,26.624-3.832c1.858-0.571,3.421-1.842,4.361-3.543
	c24.472-44.313,9.243-115.045-37.034-172.008c-8.027-9.881-16.887-18.836-28.014-25.216c6.549-15.97,8.26-32.942,5.68-49.119
	c9.713-2.932,19.088-7.808,27.956-14.558c2.082-1.585,4.172-3.229,6.211-4.885c56.962-46.276,86.355-112.389,71.479-160.776
	c-0.571-1.858-1.842-3.422-3.543-4.361C463.519,38.653,400.547,49.65,345.742,88.458z M380.368,295.009
	c-9.622,19.047-27.537,33.595-48.183,39.318c-1.44,0.399-4.609,1.119-4.736,1.145c-6.873-21.162-21.158-38.625-40.474-49.548
	c-10.728-6.066-22.645-9.91-34.921-11.113c0.039-0.119,0.071-0.239,0.109-0.358c5.718-17.739,5.184-37.263-1.177-54.738
	c-0.018-0.048-1.065-2.771-1.615-4.059c0.308-0.432,2.649-3.524,3.549-4.607c19.584-23.569,53.211-33.193,82.36-23.93
	c42.156,13.397,64.603,62.413,47.316,103.088C381.906,291.83,381.164,293.433,380.368,295.009z M167.514,317.583
	c-0.037,0.062-0.078,0.121-0.115,0.184c-0.335-0.023-0.669-0.046-1.004-0.073c-24.59-2.038-46.596-17.236-57.036-39.851
	c-1.258-2.732-2.361-5.565-3.274-8.503c-9.546-30.686,3.463-63.096,29.598-79.287c0.023-0.014,0.046-0.029,0.069-0.043
	c29.569-18.054,69.259-11.04,90.695,16.171c13.211,16.771,17.913,39.587,12.453,60.219c-0.64,2.422-2.635,7.934-2.793,8.323
	c-6.349,0.541-12.687,1.75-18.918,3.688c-18.975,5.903-35.04,17.747-46.202,33.81C170.698,312.634,168.337,316.182,167.514,317.583z
	 M215.047,74.623c16.693-13.209,37.532-19.123,58.674-16.66c21.144,2.464,40.062,13.015,53.27,29.709
	c18.543,23.437,22.419,56.864,9.268,84.089c-0.109-0.03-3.422-0.867-3.563-0.9c-32.076-7.454-66.891,3.52-88.939,27.877
	c-0.742,0.82-2.221,2.541-2.239,2.562c-7.649-11.21-17.968-20.452-30.322-26.943c-6.627-3.482-13.579-6.013-20.691-7.623
	c-0.442-1.1-0.858-2.209-1.25-3.328c-5.554-15.881-5.883-33.481-0.974-49.572C192.983,98.421,202.411,84.621,215.047,74.623z
	 M91.233,179.469c-24.504-23.24-42.706-50.277-52.638-78.188c-8.948-25.145-10.244-49.262-3.735-68.34
	c18.707-7.509,42.858-7.492,68.442,0.113c28.398,8.441,56.359,25.186,80.863,48.426c0.73,0.693,1.459,1.393,2.184,2.098
	c-4.848,7.058-8.691,14.749-11.458,22.893c-0.012,0.036-0.025,0.071-0.037,0.107c-4.198,12.344-5.826,25.618-4.71,38.612
	c0.185,2.158,0.437,4.307,0.77,6.447l-22.356-21.202c3.488-7.809,10.82-27.763,7.172-51.067c-0.641-4.092-4.476-6.891-8.571-6.25
	c-4.092,0.641-6.891,4.477-6.25,8.571c2.436,15.564-1.13,29.527-4.056,37.645l-21.056-19.967c3.32-8.268,8.581-25.239,5.583-44.385
	c-0.64-4.092-4.476-6.89-8.571-6.25c-4.092,0.641-6.891,4.478-6.25,8.571c1.882,12.022-0.351,23.226-2.681,30.761L83.073,68.331
	c-3.006-2.851-7.754-2.724-10.604,0.281c-2.85,3.006-2.725,7.754,0.281,10.604l20.806,19.731
	c-7.404,2.727-18.471,5.548-30.576,4.306c-4.111-0.423-7.805,2.574-8.228,6.695c-0.423,4.12,2.574,7.805,6.695,8.228
	c2.569,0.264,5.087,0.383,7.551,0.383c16.016-0.001,29.472-5.055,36.477-8.309l21.02,19.935c-8.015,3.343-21.868,7.667-37.342,6.076
	c-4.114-0.424-7.805,2.574-8.228,6.695c-0.423,4.121,2.574,7.805,6.695,8.228c2.869,0.295,5.679,0.428,8.417,0.428
	c19.648,0,35.514-6.871,42.199-10.293l25.107,23.812c-1.604,0.171-3.205,0.406-4.797,0.666c-8.164,1.348-16.153,3.877-23.58,7.532
	c-9.971,4.883-18.834,11.666-26.178,20.087c-4.162-2.485-8.21-5.471-12.084-8.921C94.865,182.86,93.025,181.169,91.233,179.469z
	 M85.589,448.403c-26.091,5.623-50.173,3.79-68.249-5.129c-5.027-19.52-1.889-43.467,8.959-67.853
	c12.041-27.068,32.259-52.631,58.472-73.926c1.917-1.557,3.881-3.102,5.838-4.592c2.846-2.166,5.764-4.111,8.729-5.818
	c10.449,18.081,27.176,31.501,46.888,37.819l-17.513,14.228c-7.292-4.47-26.127-14.322-49.712-13.712
	c-4.141,0.106-7.413,3.549-7.306,7.691c0.106,4.141,3.541,7.396,7.691,7.306c15.565-0.402,29.04,4.969,36.77,8.917l-22.485,18.267
	c-7.767-4.364-23.915-11.779-43.292-11.272c-4.141,0.106-7.413,3.549-7.306,7.691c0.106,4.142,3.568,7.396,7.691,7.306
	c12.167-0.321,22.989,3.345,30.158,6.633l-22.259,18.082c-3.215,2.612-3.704,7.336-1.092,10.551c2.543,3.13,7.36,3.685,10.551,1.092
	L90.379,393.6c1.747,7.695,3.115,19.035,0.318,30.876c-0.952,4.031,1.544,8.072,5.575,9.024c3.977,0.937,8.084-1.596,9.024-5.575
	c4.454-18.86,0.509-36.186-2.168-44.682l22.485-18.266c2.279,8.379,4.775,22.674,1.199,37.815c-0.952,4.031,1.544,8.072,5.575,9.024
	c3.976,0.937,8.084-1.596,9.024-5.575c5.424-22.963-0.357-43.412-3.239-51.466l20.359-16.539c-0.039,0.133-0.07,0.268-0.108,0.401
	c-1.874,6.559-3.022,13.474-3.314,20.328c-0.003,0.07-0.004,0.141-0.007,0.211c-0.586,14.102,2.238,28.244,8.385,41.245
	c1.24,2.649,2.614,5.246,4.111,7.759C141.993,428.458,113.695,442.347,85.589,448.403z M265.228,432.843
	c-18.711,5.821-38.571,4.006-55.917-5.108c-23.47-12.333-39.073-37.832-39.273-64.495c-0.114-15.256,4.813-30.645,13.68-43.058
	c13.214-18.492,34.507-30.034,57.622-30.718c0.024-0.001,0.047-0.006,0.07-0.007c49.328-2.035,86.766,48.564,72.05,95.212
	c-0.013,0.041-0.027,0.081-0.04,0.122C306.319,407.301,288.015,425.755,265.228,432.843z M408.436,324.037
	c22.276,25.715,39.659,56.586,46.865,90.027c5.622,26.09,3.79,50.173-5.129,68.249c-19.522,5.028-43.467,1.889-67.853-8.959
	c-25.67-11.419-49.985-30.191-70.593-54.46c3.766-4.603,7.102-9.615,9.932-15.001c1.723-3.28,3.291-6.814,4.599-10.334
	c5.207-13.931,6.793-28.803,4.629-43.474c0.067-0.014,1.592-0.356,1.86-0.419l17.282,21.274
	c-4.469,7.292-14.318,26.125-13.712,49.711c0.104,4.076,3.441,7.309,7.495,7.309c0.065,0,0.13-0.001,0.196-0.002
	c4.141-0.106,7.413-3.549,7.306-7.691c-0.399-15.552,4.972-29.032,8.919-36.767l18.266,22.485
	c-4.361,7.769-11.772,23.919-11.274,43.29c0.104,4.076,3.441,7.309,7.495,7.309c0.065,0,0.131-0.001,0.196-0.002
	c4.141-0.106,7.413-3.549,7.306-7.691c-0.313-12.164,3.35-22.986,6.634-30.157c0,0,18.062,22.234,18.081,22.257
	c2.584,3.18,7.378,3.67,10.551,1.092c3.215-2.612,3.704-7.336,1.092-10.551l-18.102-22.283c7.658-1.749,18.966-3.11,30.897-0.292
	c4.032,0.951,8.072-1.544,9.024-5.575c0.952-4.031-1.544-8.072-5.575-9.024c-18.86-4.455-36.186-0.51-44.682,2.167l-18.266-22.484
	c8.38-2.279,22.675-4.775,37.815-1.199c4.033,0.951,8.072-1.544,9.024-5.575c0.952-4.031-1.544-8.072-5.575-9.024
	c-22.962-5.423-43.412,0.357-51.466,3.239l-13.669-16.826c1.222-0.524,2.432-1.074,3.63-1.65
	c15.194-7.307,28.256-18.76,37.375-32.944c0.117-0.182,1.025-1.62,1.027-1.619C396.672,312.351,402.84,317.576,408.436,324.037z
	 M494.659,73.067c5.027,19.52,1.889,43.468-8.959,67.854c-12.041,27.068-32.259,52.632-58.471,73.926
	c-1.917,1.557-3.881,3.103-5.838,4.592c-7.182,5.466-14.695,9.451-22.412,11.893c-0.203-0.612-0.437-1.21-0.653-1.816
	c-2.253-6.337-5.192-12.441-8.772-18.136c-5.902-9.413-13.564-17.839-22.815-24.726l16.547-13.443
	c7.079,4.336,25.03,13.738,47.63,13.738c4.758,0,9.528-2.179,9.388-7.718c-0.106-4.141-3.575-7.409-7.691-7.306
	c-15.754,0.405-29.137-4.936-36.807-8.887l22.523-18.297c7.52,4.221,22.891,11.297,41.433,11.297c4.695,0,9.303-2.328,9.165-7.715
	c-0.106-4.141-3.553-7.405-7.691-7.306c-12.168,0.321-22.989-3.345-30.159-6.633l22.259-18.083
	c3.215-2.612,3.704-7.336,1.092-10.551c-2.611-3.215-7.336-3.704-10.551-1.092l-22.256,18.08
	c-1.747-7.695-3.115-19.035-0.318-30.876c0.952-4.031-1.544-8.072-5.575-9.024s-8.072,1.543-9.024,5.575
	c-4.455,18.86-0.51,36.185,2.168,44.682l-22.523,18.297c-2.295-8.32-4.782-22.516-1.161-37.846c0.952-4.031-1.544-8.072-5.575-9.024
	c-4.033-0.952-8.072,1.544-9.024,5.575c-5.421,22.953,0.358,43.408,3.24,51.466l-20.619,16.751c-0.887-0.448-2.743-1.353-2.779-1.37
	c0.05-0.109,0.095-0.22,0.145-0.329c4.968-10.863,7.879-22.745,8.49-34.677c0.722-13.774-1.537-27.325-6.565-39.894
	C401.215,66.875,458.442,55.168,494.659,73.067z"/>
<g>
</g>
<g>
</g>
<g>
</g>
<g>
</g>
<g>
</g>
<g>
</g>
<g>
</g>
<g>
</g>
<g>
</g>
<g>
</g>
<g>
</g>
<g>
</g>
<g>
</g>
<g>
</g>
<g>
</g>
</svg>
